<svg width="218" height="77" viewBox="0 0 218 77" fill="none" xmlns="http://www.w3.org/2000/svg">
    <path
        d="M47.7823 51.3222C45.6148 50.249 43.2916 49.4557 40.862 49.0046C40.8404 49 40.818 49.003 40.798 49.013C40.7779 49.023 40.7612 49.0397 40.7501 49.0606C40.4526 49.6345 40.1212 50.3827 39.8888 50.9738C37.3121 50.5511 34.6925 50.5511 32.1158 50.9738C31.857 50.3187 31.5652 49.68 31.2417 49.0606C31.2308 49.0394 31.2142 49.0224 31.1942 49.0118C31.1742 49.0013 31.1517 48.9977 31.1298 49.0015C28.7017 49.4526 26.3785 50.2458 24.2096 51.3207C24.191 51.3293 24.1751 51.3439 24.1643 51.3627C19.7557 58.4789 18.5474 65.4193 19.1409 72.2726C19.1426 72.2894 19.1473 72.3056 19.1549 72.3203C19.1624 72.3351 19.1726 72.3479 19.1848 72.3582C21.758 74.4151 24.628 75.9821 27.6747 76.9934C27.6959 77.0006 27.7186 77.0006 27.7399 76.9934C27.7611 76.9861 27.7798 76.9721 27.7937 76.953C28.4493 75.9903 29.0302 74.9689 29.5305 73.8996C29.5374 73.885 29.5414 73.8689 29.5422 73.8524C29.543 73.836 29.5405 73.8195 29.535 73.8042C29.5295 73.7888 29.5211 73.775 29.5103 73.7635C29.4995 73.7521 29.4865 73.7433 29.4724 73.7379C28.5572 73.3595 27.6706 72.9028 26.8205 72.3722C26.8052 72.3626 26.7923 72.349 26.783 72.3326C26.7737 72.3162 26.7682 72.2976 26.7671 72.2783C26.766 72.259 26.7692 72.2398 26.7766 72.2222C26.7839 72.2046 26.7951 72.1894 26.8091 72.1777C26.9876 72.0331 27.1661 71.8822 27.3361 71.7313C27.3514 71.7178 27.3698 71.7091 27.3893 71.7064C27.4089 71.7036 27.4287 71.7069 27.4466 71.7158C33.0097 74.4596 39.0346 74.4596 44.5325 71.7158C44.5505 71.7063 44.5705 71.7027 44.5903 71.7051C44.6101 71.7076 44.6289 71.7161 44.6444 71.7298C44.8144 71.8822 44.9915 72.0331 45.1714 72.1777C45.1856 72.1891 45.197 72.2042 45.2045 72.2216C45.2121 72.239 45.2156 72.2582 45.2148 72.2775C45.2139 72.2967 45.2088 72.3155 45.1997 72.332C45.1907 72.3485 45.178 72.3623 45.1629 72.3722C44.3158 72.9072 43.4346 73.3599 42.5096 73.7363C42.4954 73.742 42.4824 73.7509 42.4716 73.7625C42.4608 73.7741 42.4524 73.7881 42.4469 73.8035C42.4414 73.819 42.4389 73.8355 42.4397 73.8521C42.4405 73.8687 42.4446 73.8849 42.4515 73.8996C42.9615 74.9682 43.5451 75.9855 44.1869 76.9514C44.2002 76.9712 44.2188 76.9861 44.2401 76.9939C44.2614 77.0016 44.2844 77.002 44.3059 76.995C47.3578 75.9865 50.2325 74.4188 52.8085 72.3582C52.821 72.3485 52.8316 72.336 52.8394 72.3215C52.8472 72.3071 52.8521 72.2909 52.8538 72.2742C53.5621 64.3507 51.6667 57.4663 47.8262 51.3658C47.8168 51.3459 47.8012 51.3305 47.7823 51.3222ZM30.362 68.0993C28.6876 68.0993 27.3064 66.4366 27.3064 64.3974C27.3064 62.3566 28.6607 60.6954 30.362 60.6954C32.0761 60.6954 33.4446 62.3706 33.4177 64.3974C33.4177 66.4381 32.0634 68.0993 30.362 68.0993V68.0993ZM41.6596 68.0993C39.9837 68.0993 38.6039 66.4366 38.6039 64.3974C38.6039 62.3566 39.9568 60.6954 41.6596 60.6954C43.3737 60.6954 44.7422 62.3706 44.7153 64.3974C44.7153 66.4381 43.3751 68.0993 41.6596 68.0993V68.0993Z"
        fill="#8445FF" />
    <path
        d="M85.2 41.26C85.2 41.5 84.9933 41.8533 84.58 42.32C84.0867 42.88 82.8 44.6 80.72 47.48C80.7467 49.2 80.8 50.38 80.88 51.02C80.92 51.42 80.94 51.7067 80.94 51.88C80.94 52.32 80.86 52.62 80.7 52.78C80.5533 52.9267 80.2933 53 79.92 53C79.64 53 79.3733 52.92 79.12 52.76C78.88 52.5867 78.76 52.38 78.76 52.14C78.76 51.1667 78.74 49.74 78.7 47.86C78.7 47.78 78.6467 47.6467 78.54 47.46C78.4333 47.2733 78.3667 47.1533 78.34 47.1C78.06 46.6067 77.7067 46.06 77.28 45.46C76.8667 44.8467 76.5067 44.3867 76.2 44.08C75.6133 43.4933 75.1533 42.9667 74.82 42.5C74.4867 42.02 74.32 41.68 74.32 41.48C74.32 41.2 74.4467 40.98 74.7 40.82C74.9667 40.6467 75.2533 40.56 75.56 40.56C75.7333 40.56 75.9133 40.6067 76.1 40.7C76.3 40.7933 76.46 40.9267 76.58 41.1C77.3667 42.2733 78.0667 43.2467 78.68 44.02L79.62 45.24C80.1933 44.6533 80.6933 44.0733 81.12 43.5C81.56 42.9133 82.04 42.22 82.56 41.42L82.9 40.9C83.1533 40.5533 83.5467 40.38 84.08 40.38C84.3333 40.38 84.58 40.4533 84.82 40.6C85.0733 40.7467 85.2 40.9667 85.2 41.26ZM95.6467 45.84C95.6334 45.6267 95.6267 45.3067 95.6267 44.88V44.12C95.6267 43.6133 95.6134 43.2333 95.5867 42.98C95.5601 42.7667 95.5467 42.2133 95.5467 41.32C95.5467 41 95.6401 40.7533 95.8267 40.58C96.0267 40.3933 96.2934 40.3 96.6267 40.3C97.0534 40.3 97.3401 40.3933 97.4867 40.58C97.6334 40.7667 97.7067 41.0733 97.7067 41.5V42.26L97.6867 44.46C97.6734 44.8867 97.6667 45.5267 97.6667 46.38L97.6867 48.02C97.7001 48.2733 97.7067 48.6267 97.7067 49.08C97.7067 49.44 97.7201 49.9533 97.7467 50.62C97.7734 51.2333 97.7867 51.6933 97.7867 52C97.7867 52.2533 97.7134 52.4867 97.5667 52.7C97.4334 52.9133 97.2467 53.02 97.0067 53.02C96.0734 53.02 95.6067 52.7067 95.6067 52.08C95.6067 51.7333 95.6201 51.3467 95.6467 50.92C95.6734 50.6133 95.6867 50.1467 95.6867 49.52C95.6867 49.08 95.6734 48.4467 95.6467 47.62C95.0201 47.6733 93.9401 47.7 92.4067 47.7C91.4467 47.7 90.7001 47.7 90.1667 47.7C89.6334 47.6867 89.2467 47.6533 89.0067 47.6L88.9867 49.9C88.9867 50.0467 89.0201 50.44 89.0867 51.08C89.1534 51.5067 89.1867 51.88 89.1867 52.2C89.1867 52.4 89.0667 52.5933 88.8267 52.78C88.6001 52.9533 88.3867 53.04 88.1867 53.04C87.7067 53.04 87.3801 52.9267 87.2067 52.7C87.0334 52.46 86.9467 52.1 86.9467 51.62L86.9267 50.04C86.9134 49.8533 86.9067 49.5933 86.9067 49.26C86.9067 48.7667 86.8934 48.0933 86.8667 47.24C86.8401 46.4667 86.8267 45.9067 86.8267 45.56C86.8267 45.04 86.8401 44.3133 86.8667 43.38C86.8934 42.5 86.9067 41.8467 86.9067 41.42C86.9067 40.9933 87.0134 40.7067 87.2267 40.56C87.4401 40.4133 87.6801 40.34 87.9467 40.34C88.6934 40.34 89.0667 40.5867 89.0667 41.08C89.0667 41.96 89.0467 42.8 89.0067 43.6C88.9801 44.6133 88.9667 45.3533 88.9667 45.82C89.3534 45.9133 89.7601 45.9733 90.1867 46C90.6134 46.0267 91.2134 46.04 91.9867 46.04C93.5601 46.04 94.7801 45.9733 95.6467 45.84ZM109.794 52.7C109.621 52.4733 109.474 52.2267 109.354 51.96C109.234 51.68 109.108 51.3467 108.974 50.96C108.948 50.8933 108.868 50.6933 108.734 50.36C108.614 50.0267 108.474 49.74 108.314 49.5C107.474 49.62 106.788 49.68 106.254 49.68C105.961 49.68 105.634 49.6733 105.274 49.66C104.928 49.6333 104.668 49.62 104.494 49.62C103.828 49.5667 103.294 49.54 102.894 49.54C102.734 49.7533 102.594 49.98 102.474 50.22C102.368 50.46 102.228 50.82 102.054 51.3C101.814 51.9933 101.608 52.4867 101.434 52.78C101.314 52.98 101.081 53.08 100.734 53.08C100.441 53.08 100.168 53.02 99.9144 52.9C99.6744 52.7667 99.5544 52.5867 99.5544 52.36C99.661 51.8533 99.8277 51.32 100.054 50.76C100.294 50.1867 100.634 49.4267 101.074 48.48L101.874 46.52C102.314 45.4 102.714 44.44 103.074 43.64C103.448 42.84 103.934 41.8933 104.534 40.8C104.614 40.64 104.748 40.5067 104.934 40.4C105.121 40.28 105.328 40.22 105.554 40.22C105.808 40.22 105.988 40.24 106.094 40.28C106.214 40.3067 106.308 40.36 106.374 40.44C106.441 40.5067 106.541 40.6533 106.674 40.88C107.128 41.5867 107.514 42.3133 107.834 43.06C108.168 43.8067 108.588 44.84 109.094 46.16L109.514 47.22C109.888 48.18 110.208 48.9867 110.474 49.64C110.754 50.28 111.061 50.8667 111.394 51.4C111.608 51.7467 111.714 51.9867 111.714 52.12C111.714 52.44 111.614 52.6867 111.414 52.86C111.228 53.02 110.981 53.1 110.674 53.1C110.288 53.1 109.994 52.9667 109.794 52.7ZM107.734 47.86C107.521 47.4067 107.214 46.62 106.814 45.5C106.401 44.3 105.988 43.3467 105.574 42.64C105.321 43.28 104.948 44.1067 104.454 45.12C104.121 45.7467 103.741 46.6533 103.314 47.84C104.168 47.9467 105.088 48 106.074 48C106.781 48 107.334 47.9533 107.734 47.86ZM124.247 51.88C124.381 51.9467 124.481 52.0333 124.547 52.14C124.627 52.2467 124.667 52.4 124.667 52.6C124.667 52.8533 124.567 53.0533 124.367 53.2C124.167 53.36 123.947 53.44 123.707 53.44C123.414 53.44 123.081 53.3667 122.707 53.22C121.961 52.8867 121.207 52.2067 120.447 51.18C119.687 50.14 118.854 48.7733 117.947 47.08C117.187 47.6667 116.414 48.2133 115.627 48.72C115.627 49 115.634 49.3267 115.647 49.7C115.674 50.06 115.687 50.3267 115.687 50.5C115.714 51.2733 115.727 51.7867 115.727 52.04C115.727 52.2667 115.654 52.4867 115.507 52.7C115.361 52.9 115.141 53 114.847 53C114.421 53 114.114 52.9333 113.927 52.8C113.741 52.6533 113.627 52.4467 113.587 52.18C113.481 51.5133 113.427 50.8733 113.427 50.26C113.427 49.5667 113.481 48.5667 113.587 47.26C113.694 46.0067 113.747 45.0667 113.747 44.44C113.747 44.2 113.734 43.8533 113.707 43.4C113.694 43.04 113.654 42.7067 113.587 42.4C113.534 41.9733 113.507 41.6733 113.507 41.5C113.507 41.0733 113.601 40.7667 113.787 40.58C113.974 40.3933 114.261 40.3 114.647 40.3C114.941 40.3 115.181 40.3867 115.367 40.56C115.567 40.72 115.681 40.94 115.707 41.22C115.774 42.3533 115.807 43.2267 115.807 43.84C115.794 44.1733 115.767 44.6533 115.727 45.28C115.701 45.8933 115.674 46.28 115.647 46.44C116.101 46.1867 116.987 45.46 118.307 44.26C119.641 43.0467 120.587 42.0933 121.147 41.4L121.407 41.1C121.621 40.82 121.801 40.6267 121.947 40.52C122.094 40.4133 122.294 40.36 122.547 40.36C122.801 40.36 123.027 40.4467 123.227 40.62C123.441 40.78 123.547 40.9733 123.547 41.2C123.547 41.64 123.321 42.0867 122.867 42.54C121.761 43.6867 120.654 44.7533 119.547 45.74C120.334 47.22 121.101 48.4933 121.847 49.56C122.607 50.6133 123.407 51.3867 124.247 51.88ZM137.021 51.48C137.154 51.5467 137.254 51.6333 137.321 51.74C137.401 51.8467 137.441 52 137.441 52.2C137.441 52.4533 137.341 52.66 137.141 52.82C136.954 52.9667 136.734 53.04 136.481 53.04C136.187 53.04 135.854 52.9667 135.481 52.82C134.734 52.4867 134.001 51.8733 133.281 50.98C132.574 50.0733 131.721 48.7733 130.721 47.08C129.961 47.6667 129.187 48.2133 128.401 48.72C128.401 49 128.407 49.3267 128.421 49.7C128.447 50.06 128.461 50.3267 128.461 50.5C128.487 51.2733 128.501 51.7867 128.501 52.04C128.501 52.2667 128.427 52.4867 128.281 52.7C128.134 52.9 127.914 53 127.621 53C127.194 53 126.887 52.9333 126.701 52.8C126.514 52.6533 126.401 52.4467 126.361 52.18C126.254 51.5133 126.201 50.8733 126.201 50.26C126.201 49.5667 126.254 48.5667 126.361 47.26C126.467 46.0067 126.521 45.0667 126.521 44.44C126.521 44.2 126.507 43.8533 126.481 43.4C126.467 43.04 126.427 42.7067 126.361 42.4C126.307 41.9733 126.281 41.6733 126.281 41.5C126.281 41.0733 126.374 40.7667 126.561 40.58C126.747 40.3933 127.034 40.3 127.421 40.3C127.714 40.3 127.954 40.3867 128.141 40.56C128.341 40.72 128.454 40.94 128.481 41.22C128.547 42.3533 128.581 43.2267 128.581 43.84C128.567 44.1733 128.541 44.6533 128.501 45.28C128.474 45.8933 128.447 46.28 128.421 46.44C128.874 46.1867 129.761 45.46 131.081 44.26C132.414 43.0467 133.361 42.0933 133.921 41.4L134.181 41.1C134.394 40.82 134.574 40.6267 134.721 40.52C134.867 40.4133 135.067 40.36 135.321 40.36C135.574 40.36 135.801 40.4467 136.001 40.62C136.214 40.78 136.321 40.9733 136.321 41.2C136.321 41.64 136.094 42.0867 135.641 42.54C134.534 43.6867 133.427 44.7533 132.321 45.74C133.881 48.66 135.447 50.5733 137.021 51.48ZM148.134 52.7C147.961 52.4733 147.814 52.2267 147.694 51.96C147.574 51.68 147.448 51.3467 147.314 50.96C147.288 50.8933 147.208 50.6933 147.074 50.36C146.954 50.0267 146.814 49.74 146.654 49.5C145.814 49.62 145.128 49.68 144.594 49.68C144.301 49.68 143.974 49.6733 143.614 49.66C143.268 49.6333 143.008 49.62 142.834 49.62C142.168 49.5667 141.634 49.54 141.234 49.54C141.074 49.7533 140.934 49.98 140.814 50.22C140.708 50.46 140.568 50.82 140.394 51.3C140.154 51.9933 139.948 52.4867 139.774 52.78C139.654 52.98 139.421 53.08 139.074 53.08C138.781 53.08 138.508 53.02 138.254 52.9C138.014 52.7667 137.894 52.5867 137.894 52.36C138.001 51.8533 138.168 51.32 138.394 50.76C138.634 50.1867 138.974 49.4267 139.414 48.48L140.214 46.52C140.654 45.4 141.054 44.44 141.414 43.64C141.788 42.84 142.274 41.8933 142.874 40.8C142.954 40.64 143.088 40.5067 143.274 40.4C143.461 40.28 143.668 40.22 143.894 40.22C144.148 40.22 144.328 40.24 144.434 40.28C144.554 40.3067 144.648 40.36 144.714 40.44C144.781 40.5067 144.881 40.6533 145.014 40.88C145.468 41.5867 145.854 42.3133 146.174 43.06C146.508 43.8067 146.928 44.84 147.434 46.16L147.854 47.22C148.228 48.18 148.548 48.9867 148.814 49.64C149.094 50.28 149.401 50.8667 149.734 51.4C149.948 51.7467 150.054 51.9867 150.054 52.12C150.054 52.44 149.954 52.6867 149.754 52.86C149.568 53.02 149.321 53.1 149.014 53.1C148.628 53.1 148.334 52.9667 148.134 52.7ZM146.074 47.86C145.861 47.4067 145.554 46.62 145.154 45.5C144.741 44.3 144.328 43.3467 143.914 42.64C143.661 43.28 143.288 44.1067 142.794 45.12C142.461 45.7467 142.081 46.6533 141.654 47.84C142.508 47.9467 143.428 48 144.414 48C145.121 48 145.674 47.9533 146.074 47.86ZM161.567 42.26C161.767 42.5 161.907 42.6933 161.987 42.84C162.067 42.9867 162.107 43.1267 162.107 43.26C162.107 43.42 162.001 43.6067 161.787 43.82C161.587 44.0333 161.387 44.14 161.187 44.14C160.921 44.14 160.707 44.1 160.547 44.02C160.387 43.94 160.254 43.8133 160.147 43.64C159.894 43.24 159.601 42.8867 159.267 42.58C158.934 42.26 158.487 42.1 157.927 42.1C157.381 42.1 156.767 42.2267 156.087 42.48C155.407 42.7333 154.907 43.0467 154.587 43.42C153.867 44.3 153.507 45.4667 153.507 46.92C153.507 48.08 153.867 49.0733 154.587 49.9C155.347 50.7533 156.307 51.18 157.467 51.18C158.001 51.18 158.581 51.0867 159.207 50.9C159.847 50.7 160.354 50.38 160.727 49.94H160.707C160.947 49.6867 161.247 49.56 161.607 49.56C161.821 49.56 162.021 49.6533 162.207 49.84C162.407 50.0267 162.507 50.2133 162.507 50.4C162.507 50.6 162.474 50.78 162.407 50.94C162.354 51.0867 162.247 51.2533 162.087 51.44C161.541 52.04 160.841 52.46 159.987 52.7C159.147 52.9267 158.187 53.04 157.107 53.04C156.214 53.04 155.354 52.8267 154.527 52.4C153.714 51.9733 153.041 51.4333 152.507 50.78C152.241 50.3933 151.981 49.84 151.727 49.12C151.487 48.3867 151.367 47.7933 151.367 47.34C151.367 46.18 151.541 45.08 151.887 44.04C152.247 42.9867 152.781 42.1467 153.487 41.52C153.954 41.0933 154.627 40.7733 155.507 40.56C156.387 40.3467 157.194 40.24 157.927 40.24C158.514 40.24 159.014 40.3267 159.427 40.5C159.854 40.66 160.221 40.88 160.527 41.16C160.834 41.4267 161.181 41.7933 161.567 42.26ZM173.479 45.84C173.465 45.6267 173.459 45.3067 173.459 44.88V44.12C173.459 43.6133 173.445 43.2333 173.419 42.98C173.392 42.7667 173.379 42.2133 173.379 41.32C173.379 41 173.472 40.7533 173.659 40.58C173.859 40.3933 174.125 40.3 174.459 40.3C174.885 40.3 175.172 40.3933 175.319 40.58C175.465 40.7667 175.539 41.0733 175.539 41.5V42.26L175.519 44.46C175.505 44.8867 175.499 45.5267 175.499 46.38L175.519 48.02C175.532 48.2733 175.539 48.6267 175.539 49.08C175.539 49.44 175.552 49.9533 175.579 50.62C175.605 51.2333 175.619 51.6933 175.619 52C175.619 52.2533 175.545 52.4867 175.399 52.7C175.265 52.9133 175.079 53.02 174.839 53.02C173.905 53.02 173.439 52.7067 173.439 52.08C173.439 51.7333 173.452 51.3467 173.479 50.92C173.505 50.6133 173.519 50.1467 173.519 49.52C173.519 49.08 173.505 48.4467 173.479 47.62C172.852 47.6733 171.772 47.7 170.239 47.7C169.279 47.7 168.532 47.7 167.999 47.7C167.465 47.6867 167.079 47.6533 166.839 47.6L166.819 49.9C166.819 50.0467 166.852 50.44 166.919 51.08C166.985 51.5067 167.019 51.88 167.019 52.2C167.019 52.4 166.899 52.5933 166.659 52.78C166.432 52.9533 166.219 53.04 166.019 53.04C165.539 53.04 165.212 52.9267 165.039 52.7C164.865 52.46 164.779 52.1 164.779 51.62L164.759 50.04C164.745 49.8533 164.739 49.5933 164.739 49.26C164.739 48.7667 164.725 48.0933 164.699 47.24C164.672 46.4667 164.659 45.9067 164.659 45.56C164.659 45.04 164.672 44.3133 164.699 43.38C164.725 42.5 164.739 41.8467 164.739 41.42C164.739 40.9933 164.845 40.7067 165.059 40.56C165.272 40.4133 165.512 40.34 165.779 40.34C166.525 40.34 166.899 40.5867 166.899 41.08C166.899 41.96 166.879 42.8 166.839 43.6C166.812 44.6133 166.799 45.3533 166.799 45.82C167.185 45.9133 167.592 45.9733 168.019 46C168.445 46.0267 169.045 46.04 169.819 46.04C171.392 46.04 172.612 45.9733 173.479 45.84Z"
        fill="#8445FF" />
    <path
        d="M84.56 74.7C84.3867 74.4733 84.24 74.2267 84.12 73.96C84 73.68 83.8733 73.3467 83.74 72.96C83.7133 72.8933 83.6333 72.6933 83.5 72.36C83.38 72.0267 83.24 71.74 83.08 71.5C82.24 71.62 81.5533 71.68 81.02 71.68C80.7267 71.68 80.4 71.6733 80.04 71.66C79.6933 71.6333 79.4333 71.62 79.26 71.62C78.5933 71.5667 78.06 71.54 77.66 71.54C77.5 71.7533 77.36 71.98 77.24 72.22C77.1333 72.46 76.9933 72.82 76.82 73.3C76.58 73.9933 76.3733 74.4867 76.2 74.78C76.08 74.98 75.8467 75.08 75.5 75.08C75.2067 75.08 74.9333 75.02 74.68 74.9C74.44 74.7667 74.32 74.5867 74.32 74.36C74.4267 73.8533 74.5933 73.32 74.82 72.76C75.06 72.1867 75.4 71.4267 75.84 70.48L76.64 68.52C77.08 67.4 77.48 66.44 77.84 65.64C78.2133 64.84 78.7 63.8933 79.3 62.8C79.38 62.64 79.5133 62.5067 79.7 62.4C79.8867 62.28 80.0933 62.22 80.32 62.22C80.5733 62.22 80.7533 62.24 80.86 62.28C80.98 62.3067 81.0733 62.36 81.14 62.44C81.2067 62.5067 81.3067 62.6533 81.44 62.88C81.8933 63.5867 82.28 64.3133 82.6 65.06C82.9333 65.8067 83.3533 66.84 83.86 68.16L84.28 69.22C84.6533 70.18 84.9733 70.9867 85.24 71.64C85.52 72.28 85.8267 72.8667 86.16 73.4C86.3733 73.7467 86.48 73.9867 86.48 74.12C86.48 74.44 86.38 74.6867 86.18 74.86C85.9933 75.02 85.7467 75.1 85.44 75.1C85.0533 75.1 84.76 74.9667 84.56 74.7ZM82.5 69.86C82.2867 69.4067 81.98 68.62 81.58 67.5C81.1667 66.3 80.7533 65.3467 80.34 64.64C80.0867 65.28 79.7133 66.1067 79.22 67.12C78.8867 67.7467 78.5067 68.6533 78.08 69.84C78.9333 69.9467 79.8533 70 80.84 70C81.5467 70 82.1 69.9533 82.5 69.86ZM85.8411 63.34C85.8411 62.7667 86.2611 62.48 87.1011 62.48C87.4611 62.48 88.1478 62.4933 89.1611 62.52C90.2811 62.5733 91.1278 62.6 91.7011 62.6C92.1678 62.6 92.7344 62.5733 93.4011 62.52C93.8544 62.4933 94.1411 62.48 94.2611 62.48C94.9944 62.5067 95.6144 62.64 96.1211 62.88C96.2678 62.9467 96.3878 63.0267 96.4811 63.12C96.5744 63.2133 96.6211 63.3667 96.6211 63.58C96.6211 63.8733 96.5278 64.1267 96.3411 64.34C96.1544 64.54 95.9278 64.64 95.6611 64.64C95.3678 64.64 94.9411 64.6 94.3811 64.52C93.8878 64.4267 93.4544 64.38 93.0811 64.38C92.7211 64.38 92.4478 64.3867 92.2611 64.4C92.2211 64.84 92.2011 65.8933 92.2011 67.56C92.2011 69.5467 92.2611 71.56 92.3811 73.6L92.4211 74.18C92.4211 74.7267 92.1078 75 91.4811 75C90.9878 75 90.6544 74.8867 90.4811 74.66C90.3078 74.42 90.2211 74.06 90.2211 73.58C90.2211 72.6333 90.1944 71.4533 90.1411 70.04C90.0878 68.8667 90.0611 68.0333 90.0611 67.54C90.0611 67.2067 90.1011 66.1867 90.1811 64.48L87.8411 64.5C87.0944 64.5 86.5744 64.4333 86.2811 64.3C85.9878 64.1533 85.8411 63.8333 85.8411 63.34ZM107.392 74.7C107.219 74.4733 107.072 74.2267 106.952 73.96C106.832 73.68 106.705 73.3467 106.572 72.96C106.545 72.8933 106.465 72.6933 106.332 72.36C106.212 72.0267 106.072 71.74 105.912 71.5C105.072 71.62 104.385 71.68 103.852 71.68C103.559 71.68 103.232 71.6733 102.872 71.66C102.525 71.6333 102.265 71.62 102.092 71.62C101.425 71.5667 100.892 71.54 100.492 71.54C100.332 71.7533 100.192 71.98 100.072 72.22C99.9654 72.46 99.8254 72.82 99.652 73.3C99.412 73.9933 99.2054 74.4867 99.032 74.78C98.912 74.98 98.6787 75.08 98.332 75.08C98.0387 75.08 97.7654 75.02 97.512 74.9C97.272 74.7667 97.152 74.5867 97.152 74.36C97.2587 73.8533 97.4254 73.32 97.652 72.76C97.892 72.1867 98.232 71.4267 98.672 70.48L99.472 68.52C99.912 67.4 100.312 66.44 100.672 65.64C101.045 64.84 101.532 63.8933 102.132 62.8C102.212 62.64 102.345 62.5067 102.532 62.4C102.719 62.28 102.925 62.22 103.152 62.22C103.405 62.22 103.585 62.24 103.692 62.28C103.812 62.3067 103.905 62.36 103.972 62.44C104.039 62.5067 104.139 62.6533 104.272 62.88C104.725 63.5867 105.112 64.3133 105.432 65.06C105.765 65.8067 106.185 66.84 106.692 68.16L107.112 69.22C107.485 70.18 107.805 70.9867 108.072 71.64C108.352 72.28 108.659 72.8667 108.992 73.4C109.205 73.7467 109.312 73.9867 109.312 74.12C109.312 74.44 109.212 74.6867 109.012 74.86C108.825 75.02 108.579 75.1 108.272 75.1C107.885 75.1 107.592 74.9667 107.392 74.7ZM105.332 69.86C105.119 69.4067 104.812 68.62 104.412 67.5C103.999 66.3 103.585 65.3467 103.172 64.64C102.919 65.28 102.545 66.1067 102.052 67.12C101.719 67.7467 101.339 68.6533 100.912 69.84C101.765 69.9467 102.685 70 103.672 70C104.379 70 104.932 69.9533 105.332 69.86ZM119.885 67.84C119.872 67.6267 119.865 67.3067 119.865 66.88V66.12C119.865 65.6133 119.852 65.2333 119.825 64.98C119.798 64.7667 119.785 64.2133 119.785 63.32C119.785 63 119.878 62.7533 120.065 62.58C120.265 62.3933 120.532 62.3 120.865 62.3C121.292 62.3 121.578 62.3933 121.725 62.58C121.872 62.7667 121.945 63.0733 121.945 63.5V64.26L121.925 66.46C121.912 66.8867 121.905 67.5267 121.905 68.38L121.925 70.02C121.938 70.2733 121.945 70.6267 121.945 71.08C121.945 71.44 121.958 71.9533 121.985 72.62C122.012 73.2333 122.025 73.6933 122.025 74C122.025 74.2533 121.952 74.4867 121.805 74.7C121.672 74.9133 121.485 75.02 121.245 75.02C120.312 75.02 119.845 74.7067 119.845 74.08C119.845 73.7333 119.858 73.3467 119.885 72.92C119.912 72.6133 119.925 72.1467 119.925 71.52C119.925 71.08 119.912 70.4467 119.885 69.62C119.258 69.6733 118.178 69.7 116.645 69.7C115.685 69.7 114.938 69.7 114.405 69.7C113.872 69.6867 113.485 69.6533 113.245 69.6L113.225 71.9C113.225 72.0467 113.258 72.44 113.325 73.08C113.392 73.5067 113.425 73.88 113.425 74.2C113.425 74.4 113.305 74.5933 113.065 74.78C112.838 74.9533 112.625 75.04 112.425 75.04C111.945 75.04 111.618 74.9267 111.445 74.7C111.272 74.46 111.185 74.1 111.185 73.62L111.165 72.04C111.152 71.8533 111.145 71.5933 111.145 71.26C111.145 70.7667 111.132 70.0933 111.105 69.24C111.078 68.4667 111.065 67.9067 111.065 67.56C111.065 67.04 111.078 66.3133 111.105 65.38C111.132 64.5 111.145 63.8467 111.145 63.42C111.145 62.9933 111.252 62.7067 111.465 62.56C111.678 62.4133 111.918 62.34 112.185 62.34C112.932 62.34 113.305 62.5867 113.305 63.08C113.305 63.96 113.285 64.8 113.245 65.6C113.218 66.6133 113.205 67.3533 113.205 67.82C113.592 67.9133 113.998 67.9733 114.425 68C114.852 68.0267 115.452 68.04 116.225 68.04C117.798 68.04 119.018 67.9733 119.885 67.84ZM128.133 63.96C128.079 65.1067 128.053 65.9267 128.053 66.42C128.053 67.5 128.086 68.6933 128.153 70C128.206 71.5467 128.233 72.6933 128.233 73.44C128.739 73.3733 129.046 73.34 129.153 73.34C129.446 73.34 129.679 73.4133 129.853 73.56C130.026 73.7067 130.113 73.9333 130.113 74.24C130.113 74.44 130.033 74.5933 129.873 74.7C129.713 74.8067 129.433 74.8867 129.033 74.94C128.646 74.98 128.079 75 127.333 75C126.506 75 125.886 74.9733 125.473 74.92C125.059 74.8667 124.773 74.7667 124.613 74.62C124.453 74.46 124.373 74.2267 124.373 73.92C124.373 73.6933 124.446 73.54 124.593 73.46C124.739 73.38 124.946 73.34 125.213 73.34L125.633 73.36L126.293 73.4L126.193 71.04C126.113 69.76 126.073 68.5867 126.073 67.52C126.073 66.9467 126.093 66.16 126.133 65.16L126.173 64.06C125.719 64.0867 125.366 64.1 125.113 64.1C124.819 64.1 124.619 64.0467 124.513 63.94C124.419 63.8333 124.373 63.6133 124.373 63.28C124.373 62.9067 124.626 62.6667 125.133 62.56C125.653 62.4533 126.439 62.4 127.493 62.4C128.306 62.4 128.913 62.4267 129.313 62.48C129.726 62.5333 129.933 62.6533 129.933 62.84C129.933 63.2933 129.833 63.5933 129.633 63.74C129.446 63.8733 129.079 63.94 128.533 63.94L128.133 63.96ZM139.094 69.7C140.254 71.6733 141.34 73.24 142.354 74.4C142.46 74.5067 142.514 74.6267 142.514 74.76C142.514 74.9333 142.407 75.08 142.194 75.2C141.98 75.3333 141.734 75.4 141.454 75.4C141.04 75.4 140.594 75.2267 140.114 74.88C139.767 74.64 139.447 74.2867 139.154 73.82C138.86 73.34 138.527 72.7267 138.154 71.98L137.814 71.3C137.467 70.6733 137.26 70.3067 137.194 70.2C136.9 70.32 136.56 70.4067 136.174 70.46C135.787 70.5133 135.314 70.56 134.754 70.6C134.78 72.3067 134.794 73.5 134.794 74.18C134.794 74.4333 134.7 74.64 134.514 74.8C134.327 74.9467 134.094 75.02 133.814 75.02C133.467 75.02 133.2 74.88 133.014 74.6C132.827 74.2267 132.734 73.6467 132.734 72.86L132.754 71.4C132.754 70.4933 132.774 69.6333 132.814 68.82C132.84 67.7533 132.854 66.9667 132.854 66.46L132.874 65.44C132.874 65.1333 132.854 64.82 132.814 64.5C132.6 64.4333 132.414 64.3333 132.254 64.2C132.094 64.0533 132.014 63.8933 132.014 63.72C132.014 63.3867 132.134 63.1333 132.374 62.96C132.627 62.7733 132.94 62.6533 133.314 62.6C134.394 62.4267 135.447 62.34 136.474 62.34C138.22 62.34 139.667 62.6667 140.814 63.32C141.96 63.9733 142.534 64.9667 142.534 66.3C142.534 66.7133 142.44 67.1133 142.254 67.5C142.08 67.8733 141.84 68.1867 141.534 68.44C140.734 69.0667 139.92 69.4867 139.094 69.7ZM140.414 66.24C140.414 65.6 140.074 65.08 139.394 64.68C138.727 64.2667 137.767 64.06 136.514 64.06C135.967 64.06 135.407 64.1267 134.834 64.26C134.86 64.74 134.874 65.08 134.874 65.28C134.874 65.68 134.847 66.2533 134.794 67C134.767 67.7467 134.754 68.3467 134.754 68.8C135.647 68.8 136.5 68.68 137.314 68.44C137.9 68.2667 138.394 68.1 138.794 67.94C139.194 67.78 139.56 67.56 139.894 67.28C140.24 66.9867 140.414 66.64 140.414 66.24ZM147.918 63.96C147.878 64.8133 147.858 65.6333 147.858 66.42C147.858 67.2333 147.911 68.4267 148.018 70C148.031 70.24 148.058 70.7267 148.098 71.46C148.138 72.18 148.158 72.84 148.158 73.44C148.291 73.4267 148.431 73.4067 148.578 73.38C148.738 73.3533 148.858 73.34 148.938 73.34C149.231 73.34 149.464 73.4133 149.638 73.56C149.811 73.7067 149.898 73.9333 149.898 74.24C149.898 74.44 149.818 74.5933 149.658 74.7C149.498 74.8067 149.218 74.8867 148.818 74.94C148.431 74.98 147.864 75 147.118 75C146.291 75 145.671 74.9733 145.258 74.92C144.844 74.8667 144.558 74.7667 144.398 74.62C144.238 74.46 144.158 74.2267 144.158 73.92C144.158 73.6933 144.231 73.54 144.378 73.46C144.524 73.38 144.731 73.34 144.998 73.34L145.418 73.36L146.078 73.4L145.978 71.04C145.898 69.76 145.858 68.5867 145.858 67.52C145.858 66.9467 145.878 66.16 145.918 65.16L145.958 64.06C145.504 64.0867 145.151 64.1 144.898 64.1C144.604 64.1 144.404 64.0467 144.298 63.94C144.204 63.8333 144.158 63.6133 144.158 63.28C144.158 62.9067 144.411 62.6667 144.918 62.56C145.438 62.4533 146.224 62.4 147.278 62.4C148.091 62.4 148.698 62.4267 149.098 62.48C149.511 62.5333 149.718 62.6533 149.718 62.84C149.718 63.2933 149.618 63.5933 149.418 63.74C149.231 63.8733 148.864 63.94 148.318 63.94L147.918 63.96Z"
        fill="#8445FF" />
    <path d="M1 42L217 39" stroke="white" strokeOpacity="0.3" />
    <path
        d="M22.24 7.76C21.0933 6.93333 20.1067 6.33333 19.28 5.96C18.4533 5.56 17.4933 5.36 16.4 5.36C14.2133 5.36 12.3333 5.92 10.76 7.04C9.56 7.92 8.66667 9.06667 8.08 10.48C7.49333 11.8933 7.2 13.48 7.2 15.24C7.2 16.92 7.58667 18.4 8.36 19.68C9.13333 20.9333 10.1333 21.8933 11.36 22.56C12.5867 23.2267 13.8667 23.56 15.2 23.56C16.5333 23.56 17.68 23.36 18.64 22.96C19.6267 22.5333 20.4133 21.9867 21 21.32C21.9067 20.1733 22.36 18.6533 22.36 16.76C22.36 16.4933 22.1467 16.3067 21.72 16.2C21.2933 16.0933 20.68 16.04 19.88 16.04L17 16.08C16.2267 16.08 15.6133 15.9333 15.16 15.64C14.7067 15.3467 14.48 14.9733 14.48 14.52C14.48 13.88 14.6933 13.4133 15.12 13.12C15.5467 12.8 16.12 12.64 16.84 12.64C17.6933 12.64 18.84 12.6933 20.28 12.8C21.72 12.9067 22.76 12.96 23.4 12.96C24.3333 12.96 25.08 13.2533 25.64 13.84C26.2267 14.4267 26.52 15.28 26.52 16.4C26.52 17.44 26.2933 18.6533 25.84 20.04C25.3867 21.4267 24.7467 22.6667 23.92 23.76C23.12 24.8267 21.9333 25.64 20.36 26.2C18.8133 26.7333 17.0933 27 15.2 27C13.6267 27 12.1067 26.7467 10.64 26.24C9.17333 25.7333 7.94667 25.0267 6.96 24.12C5.73333 22.9733 4.76 21.6133 4.04 20.04C3.34667 18.44 3 16.8533 3 15.28C3 12.9867 3.53333 10.76 4.6 8.6C5.69333 6.41333 7.16 4.72 9 3.52C9.8 2.98667 10.92 2.54667 12.36 2.2C13.8 1.85333 15.12 1.68 16.32 1.68C18.1867 1.68 19.8267 1.97333 21.24 2.56C22.6533 3.12 23.7333 3.93333 24.48 5C24.8 5.48 24.96 5.90667 24.96 6.28C24.96 6.70667 24.7733 7.10667 24.4 7.48C24.0267 7.85333 23.6533 8.04 23.28 8.04C23.12 8.04 22.9333 8.01333 22.72 7.96C22.5067 7.90667 22.3467 7.84 22.24 7.76ZM30.4172 18.52C30.4172 17.5067 30.6039 16.4933 30.9772 15.48C31.3505 14.44 31.8439 13.4933 32.4572 12.64C33.0705 11.7867 34.0439 11.0933 35.3772 10.56C36.7105 10 37.8972 9.72 38.9372 9.72C40.0039 9.72 41.0839 9.86667 42.1772 10.16C43.2972 10.4533 44.0705 10.9067 44.4972 11.52C45.4839 12.9067 45.9772 14.2667 45.9772 15.6C45.9772 16.32 45.8172 16.9333 45.4972 17.44C45.2039 17.9467 44.7772 18.4933 44.2172 19.08C43.7639 19.56 43.0439 19.88 42.0572 20.04C41.0972 20.2 40.1372 20.28 39.1772 20.28C38.5639 20.28 37.8172 20.2267 36.9372 20.12C36.0572 19.9867 35.2039 19.8267 34.3772 19.64C34.4305 20.1733 34.5639 20.6933 34.7772 21.2C34.9905 21.7067 35.2439 22.0933 35.5372 22.36C36.0705 22.8667 36.6172 23.1867 37.1772 23.32C37.7639 23.4533 38.5105 23.52 39.4172 23.52C40.3772 23.52 41.2705 23.36 42.0972 23.04C42.7639 22.8 43.3105 22.68 43.7372 22.68C44.2439 22.68 44.6305 22.84 44.8972 23.16C45.1639 23.4533 45.2972 23.84 45.2972 24.32C45.2972 24.9867 44.9105 25.5333 44.1372 25.96C43.3639 26.3867 42.4705 26.7067 41.4572 26.92C40.4705 27.1067 39.6705 27.2 39.0572 27.2C37.8039 27.2 36.5905 26.9733 35.4172 26.52C34.2439 26.0667 33.2705 25.4267 32.4972 24.6C31.8572 23.8533 31.3505 22.96 30.9772 21.92C30.6039 20.8533 30.4172 19.72 30.4172 18.52ZM39.1372 13.12C38.5505 13.12 37.9639 13.24 37.3772 13.48C36.7905 13.6933 36.3105 14 35.9372 14.4C35.4572 14.9067 35.1239 15.32 34.9372 15.64C34.7772 15.9333 34.6705 16.3467 34.6172 16.88C35.2839 17.0933 36.6705 17.2 38.7772 17.2C39.9239 17.2 40.8039 17.0267 41.4172 16.68C42.0572 16.3333 42.3772 15.88 42.3772 15.32C42.3772 14.76 42.0305 14.2533 41.3372 13.8C40.6439 13.3467 39.9105 13.12 39.1372 13.12ZM49.7997 13.16C49.4264 13.1067 49.1197 12.9467 48.8797 12.68C48.6664 12.4133 48.5597 12.0933 48.5597 11.72C48.5597 11.5333 48.5997 11.3333 48.6797 11.12C48.7864 10.9067 48.933 10.72 49.1197 10.56C49.4664 10.2133 50.3997 10.04 51.9197 10.04C52.133 9 52.2397 7.94667 52.2397 6.88C52.2397 6.48 52.2264 6.13333 52.1997 5.84C52.173 5.54667 52.1597 5.32 52.1597 5.16C52.1597 4.57333 52.373 4.13333 52.7997 3.84C53.253 3.54667 53.7597 3.4 54.3197 3.4C55.013 3.4 55.4797 3.57333 55.7197 3.92C55.9864 4.26667 56.1197 4.90667 56.1197 5.84C56.1197 7.22667 55.9997 8.58667 55.7597 9.92C56.1864 9.92 56.773 9.89333 57.5197 9.84C58.533 9.78667 59.2664 9.76 59.7197 9.76C60.173 9.76 60.5597 9.88 60.8797 10.12C61.2264 10.3333 61.3997 10.64 61.3997 11.04C61.3997 12.08 60.933 12.6933 59.9997 12.88C59.013 13.12 57.4797 13.2667 55.3997 13.32C55.3197 14.36 55.2797 15.4933 55.2797 16.72C55.2797 18.64 55.3997 20.2133 55.6397 21.44C55.7997 22.2933 56.0664 22.92 56.4397 23.32C56.8397 23.6933 57.4264 23.88 58.1997 23.88C58.653 23.88 59.1197 23.76 59.5997 23.52C59.9197 23.3333 60.213 23.24 60.4797 23.24C60.853 23.24 61.1197 23.36 61.2797 23.6C61.4664 23.84 61.5597 24.16 61.5597 24.56C61.5597 25.3067 61.1597 25.9333 60.3597 26.44C59.5597 26.92 58.533 27.16 57.2797 27.16C56.5064 27.16 55.7197 26.9733 54.9197 26.6C54.1464 26.2267 53.493 25.76 52.9597 25.2C52.8797 25.12 52.733 24.8133 52.5197 24.28C52.3064 23.7467 52.1197 23.1733 51.9597 22.56C51.693 21.3067 51.5597 19.5467 51.5597 17.28C51.5597 16.2933 51.613 14.9733 51.7197 13.32L49.7997 13.16ZM75.8631 1.32C76.7965 1.4 77.6098 1.65333 78.3031 2.08C78.9965 2.48 79.3431 3.09333 79.3431 3.92C79.3431 4.53333 79.0498 5.02667 78.4631 5.4C77.9031 5.74667 77.2231 5.92 76.4231 5.92C75.6498 5.92 75.1165 5.72 74.8231 5.32C74.5298 4.92 74.3831 4.50667 74.3831 4.08C74.3831 3.28 74.4631 2.61333 74.6231 2.08C74.8098 1.54667 75.2231 1.29333 75.8631 1.32ZM79.0631 19.04V20.2C79.0631 21.24 79.0898 22.2267 79.1431 23.16C79.2231 24.0667 79.3165 24.9867 79.4231 25.92C79.4231 26.24 79.2365 26.5333 78.8631 26.8C78.4898 27.04 78.1431 27.16 77.8231 27.16C77.3165 27.16 76.7965 27.0667 76.2631 26.88C75.7565 26.6667 75.4498 26.4133 75.3431 26.12C75.1831 25.2667 75.1031 24.5067 75.1031 23.84C75.1031 21.6533 75.0365 19.2 74.9031 16.48C74.7965 14.08 74.7431 12.4 74.7431 11.44C74.7431 10.96 74.9831 10.5467 75.4631 10.2C75.9431 9.85333 76.4498 9.68 76.9831 9.68C77.7565 9.68 78.2898 9.85333 78.5831 10.2C78.9031 10.5467 79.0631 11.0933 79.0631 11.84V19.04ZM83.7375 12.92C83.5242 12.76 83.3508 12.6 83.2175 12.44C83.0842 12.2533 83.0175 11.9333 83.0175 11.48C83.0175 10.9733 83.1908 10.5867 83.5375 10.32C83.9108 10.0267 84.3375 9.88 84.8175 9.88C85.7508 9.88 86.5508 10.12 87.2175 10.6C87.9108 11.08 88.4175 11.7467 88.7375 12.6C89.3242 11.5067 90.0708 10.76 90.9775 10.36C91.8842 9.93333 93.1375 9.72 94.7375 9.72C95.3775 9.72 96.0308 9.92 96.6975 10.32C97.3908 10.6933 98.0175 11.16 98.5775 11.72C99.0308 12.3067 99.4175 13.04 99.7375 13.92C100.058 14.7733 100.218 15.5467 100.218 16.24C100.218 16.64 100.191 17.2933 100.138 18.2C100.084 19.16 100.058 19.92 100.058 20.48C100.058 22.3467 100.418 23.4933 101.138 23.92C101.244 23.9733 101.444 24.04 101.738 24.12C102.031 24.2 102.244 24.28 102.378 24.36C102.538 24.44 102.618 24.56 102.618 24.72C102.644 25.36 102.404 25.8933 101.898 26.32C101.418 26.72 100.831 26.92 100.138 26.92C99.0975 26.92 98.2842 26.64 97.6975 26.08C97.1108 25.52 96.6975 24.6667 96.4575 23.52C96.3242 23.0933 96.2575 22.4667 96.2575 21.64C96.2575 21.1867 96.2842 20.4533 96.3375 19.44C96.4175 18.64 96.4575 17.7867 96.4575 16.88C96.4575 15.9467 96.1908 15.1333 95.6575 14.44C95.1242 13.72 94.3908 13.36 93.4575 13.36C92.8975 13.36 92.3108 13.5333 91.6975 13.88C91.0842 14.2 90.6575 14.6 90.4175 15.08C90.0175 15.9067 89.7508 16.7467 89.6175 17.6C89.2975 19.2533 89.1375 20.84 89.1375 22.36C89.1375 22.7333 89.1642 23.4533 89.2175 24.52C89.2175 24.6 89.2175 24.8 89.2175 25.12C89.2175 25.4133 89.1775 25.6933 89.0975 25.96C89.0442 26.2267 88.9375 26.4667 88.7775 26.68C88.6708 26.7867 88.4708 26.8933 88.1775 27C87.8842 27.1067 87.6308 27.16 87.4175 27.16C87.0442 27.16 86.5775 27 86.0175 26.68C85.4575 26.36 85.1242 26 85.0175 25.6L84.9775 25.04C84.9775 24.8267 85.0042 24.5067 85.0575 24.08C85.3775 22.2133 85.5375 20.5867 85.5375 19.2C85.5375 18.5867 85.5242 18.12 85.4975 17.8L85.4575 15.96C85.4575 15.4 85.2975 14.8667 84.9775 14.36C84.6575 13.8267 84.2442 13.3467 83.7375 12.92ZM114.45 13.16C114.077 13.1067 113.77 12.9467 113.53 12.68C113.317 12.4133 113.21 12.0933 113.21 11.72C113.21 11.5333 113.25 11.3333 113.33 11.12C113.437 10.9067 113.583 10.72 113.77 10.56C114.117 10.2667 114.583 9.98667 115.17 9.72C115.783 9.48 116.223 9.18667 116.49 8.84C116.757 8.49333 116.89 7.84 116.89 6.88C116.89 6.48 116.863 6.13333 116.81 5.84C116.783 5.54667 116.77 5.32 116.77 5.16C116.77 4.57333 116.983 4.13333 117.41 3.84C117.837 3.54667 118.33 3.4 118.89 3.4C119.583 3.4 120.05 3.57333 120.29 3.92C120.557 4.26667 120.69 4.90667 120.69 5.84C120.69 6.74667 120.65 7.53333 120.57 8.2C120.49 8.84 120.317 9.41333 120.05 9.92C120.423 9.92 121.037 9.89333 121.89 9.84C123.063 9.78667 123.877 9.76 124.33 9.76C124.783 9.76 125.183 9.88 125.53 10.12C125.877 10.3333 126.05 10.64 126.05 11.04C126.05 11.6 125.93 12.0133 125.69 12.28C125.45 12.5467 125.103 12.72 124.65 12.8C123.557 13.0933 122.01 13.2667 120.01 13.32C119.957 14.36 119.93 15.4933 119.93 16.72C119.93 18.7733 120.05 20.3467 120.29 21.44C120.45 22.2933 120.717 22.92 121.09 23.32C121.49 23.6933 122.077 23.88 122.85 23.88C123.25 23.88 123.57 23.8267 123.81 23.72C124.077 23.6133 124.223 23.5467 124.25 23.52C124.57 23.3333 124.863 23.24 125.13 23.24C125.503 23.24 125.77 23.36 125.93 23.6C126.117 23.84 126.21 24.16 126.21 24.56C126.21 25.3067 125.81 25.9333 125.01 26.44C124.21 26.92 123.183 27.16 121.93 27.16C120.517 27.16 119.317 26.7467 118.33 25.92C117.37 25.0667 116.797 23.9467 116.61 22.56C116.343 21.3067 116.21 19.5467 116.21 17.28C116.21 16.2933 116.263 14.9733 116.37 13.32L114.45 13.16ZM145.169 14.16C145.382 14.5333 145.556 15.08 145.689 15.8C145.822 16.4933 145.889 17.12 145.889 17.68C145.889 18.4267 145.769 19.36 145.529 20.48C145.289 21.5733 145.089 22.3067 144.929 22.68C143.489 25.6667 140.716 27.16 136.609 27.16C135.302 27.16 134.022 26.7333 132.769 25.88C131.516 25 130.622 23.9733 130.089 22.8L129.809 22C129.782 21.8933 129.636 21.4933 129.369 20.8C129.129 20.08 129.009 19.5333 129.009 19.16C129.009 18.0667 129.276 16.8 129.809 15.36C130.342 13.92 130.956 12.7733 131.649 11.92C132.102 11.3067 132.969 10.7867 134.249 10.36C135.529 9.90667 136.662 9.68 137.649 9.68C139.489 9.68 140.969 10.0267 142.089 10.72C143.236 11.4133 144.262 12.56 145.169 14.16ZM141.489 20.6C141.596 20.4133 141.689 20.08 141.769 19.6C141.849 19.12 141.889 18.56 141.889 17.92C141.889 17.1467 141.742 16.3867 141.449 15.64C141.182 14.8933 140.782 14.2533 140.249 13.72C140.222 13.6667 140.129 13.5867 139.969 13.48C139.809 13.3467 139.556 13.2267 139.209 13.12C138.862 12.9867 138.422 12.92 137.889 12.92C136.849 12.92 135.969 13.2267 135.249 13.84C134.529 14.4533 133.982 15.2133 133.609 16.12C133.262 17.0267 133.089 17.92 133.089 18.8C133.089 19.04 133.169 19.5333 133.329 20.28C133.489 21.0267 133.609 21.5067 133.689 21.72C133.902 22.0933 134.316 22.5333 134.929 23.04C135.542 23.52 136.236 23.76 137.009 23.76C138.209 23.76 139.142 23.48 139.809 22.92C140.502 22.36 141.062 21.5867 141.489 20.6ZM148.962 13.52C148.748 13.52 148.548 13.44 148.362 13.28C148.202 13.0933 148.122 12.88 148.122 12.64C148.122 12.0267 148.388 11.4533 148.922 10.92C149.082 10.84 149.402 10.7067 149.882 10.52C150.362 10.3333 150.788 10.24 151.162 10.24C152.175 10.24 153.002 10.52 153.642 11.08C154.282 11.6133 154.602 12.3867 154.602 13.4C154.602 13.6933 154.548 14.32 154.442 15.28C154.335 16.4 154.282 17.2667 154.282 17.88C154.282 19.7467 154.535 21.2533 155.042 22.4C155.228 22.7733 155.522 23.0667 155.922 23.28C156.322 23.4933 156.682 23.6 157.002 23.6C157.775 23.6 158.402 23.4667 158.882 23.2C159.362 22.9333 159.882 22.5067 160.442 21.92C161.002 21.3333 161.362 20.6667 161.522 19.92C161.708 19.1733 161.842 18.1467 161.922 16.84C161.975 15.9867 162.028 15.36 162.082 14.96C162.215 13.68 162.282 12.5867 162.282 11.68C162.282 11.0933 162.442 10.6133 162.762 10.24C163.082 9.84 163.522 9.64 164.082 9.64C164.402 9.64 164.762 9.74667 165.162 9.96C165.588 10.1467 165.868 10.3733 166.002 10.64C166.162 10.9067 166.242 11.3467 166.242 11.96C166.242 12.28 166.202 12.5867 166.122 12.88C165.935 13.5467 165.842 14.3467 165.842 15.28L165.882 17.36C165.882 19.2533 166.015 20.6533 166.282 21.56C166.415 21.9867 166.602 22.4267 166.842 22.88C167.082 23.3067 167.308 23.6667 167.522 23.96C168.055 24.5467 168.402 24.96 168.562 25.2C168.722 25.4133 168.802 25.6267 168.802 25.84C168.802 26.16 168.642 26.4667 168.322 26.76C168.028 27.0267 167.708 27.16 167.362 27.16C166.375 27.16 165.522 26.8267 164.802 26.16C164.082 25.4933 163.548 24.6267 163.202 23.56C162.295 24.6 161.455 25.44 160.682 26.08C160.148 26.4533 159.495 26.7333 158.722 26.92C157.948 27.08 157.175 27.16 156.402 27.16C155.362 27.16 154.308 26.7333 153.242 25.88C152.175 25.0267 151.455 24.04 151.082 22.92C151.055 22.8667 150.975 22.6533 150.842 22.28C150.735 21.9067 150.682 21.3467 150.682 20.6C150.682 19.6133 150.735 18.3733 150.842 16.88C150.922 15.92 150.962 15.04 150.962 14.24C150.962 14 150.868 13.8 150.682 13.64C150.522 13.48 150.335 13.4 150.122 13.4C149.962 13.4 149.775 13.4267 149.562 13.48C149.375 13.5067 149.175 13.52 148.962 13.52ZM186.031 13.64C186.031 14.8133 185.431 15.4 184.231 15.4C183.831 15.4 183.498 15.3067 183.231 15.12C182.964 14.9333 182.671 14.6533 182.351 14.28C181.551 13.4 180.858 12.96 180.271 12.96C179.498 12.96 178.738 13.1867 177.991 13.64C177.271 14.0933 176.684 14.7333 176.231 15.56C175.778 16.3867 175.551 17.3067 175.551 18.32C175.551 19.44 175.764 20.3733 176.191 21.12C176.644 21.8667 177.338 22.5067 178.271 23.04C178.618 23.2267 179.018 23.3733 179.471 23.48C179.951 23.5867 180.364 23.64 180.711 23.64C181.484 23.64 182.458 23.3333 183.631 22.72C184.058 22.5067 184.418 22.3467 184.711 22.24C185.004 22.1333 185.311 22.08 185.631 22.08C185.924 22.08 186.258 22.2133 186.631 22.48C187.004 22.7467 187.191 23.08 187.191 23.48C187.191 24.28 186.818 24.96 186.071 25.52C185.324 26.0533 184.404 26.4667 183.311 26.76C182.244 27.0267 181.218 27.16 180.231 27.16C178.658 27.16 177.191 26.8 175.831 26.08C174.498 25.36 173.431 24.3733 172.631 23.12C171.831 21.84 171.431 20.4 171.431 18.8C171.431 17.0933 171.818 15.5333 172.591 14.12C173.364 12.7067 174.404 11.6 175.711 10.8C177.018 10 178.444 9.6 179.991 9.6C180.871 9.6 181.778 9.76 182.711 10.08C183.644 10.4 184.431 10.8667 185.071 11.48C185.711 12.0933 186.031 12.8133 186.031 13.64ZM206.901 27.12C204.901 27.12 203.554 26.3467 202.861 24.8C202.514 24.0267 202.288 23.0267 202.181 21.8C202.074 20.5467 202.021 19.08 202.021 17.4V16.16C202.021 14.24 201.381 13.28 200.101 13.28C199.354 13.28 198.608 13.6667 197.861 14.44C197.114 15.1867 196.488 16.1867 195.981 17.44C195.501 18.6667 195.261 19.9467 195.261 21.28C195.261 22.16 195.301 22.96 195.381 23.68C195.434 24.5867 195.461 25.28 195.461 25.76C195.461 26.6667 194.834 27.12 193.581 27.12C192.968 27.12 192.421 26.9867 191.941 26.72C191.488 26.4533 191.261 26.1067 191.261 25.68C191.368 24.32 191.421 22.64 191.421 20.64L191.381 15.36C191.381 14.5067 191.314 11.3467 191.181 5.88L191.061 2.2C191.061 1.61333 191.328 1.10667 191.861 0.679998C192.394 0.226666 192.994 -4.76837e-07 193.661 -4.76837e-07C194.248 -4.76837e-07 194.674 0.133333 194.941 0.399999C195.208 0.666666 195.341 1.08 195.341 1.64C195.341 2.33333 195.328 3.14667 195.301 4.08C195.274 4.98667 195.248 5.68 195.221 6.16C195.141 7.52 195.101 8.88 195.101 10.24C195.101 11.5733 195.074 12.6267 195.021 13.4C195.821 12.2267 196.728 11.36 197.741 10.8C198.781 10.2133 199.994 9.92 201.381 9.92C202.394 9.92 203.328 10.3733 204.181 11.28C205.061 12.16 205.594 13.1733 205.781 14.32C205.834 14.9067 205.861 15.7733 205.861 16.92L205.821 19.84C205.821 20.2933 205.848 21 205.901 21.96C205.928 22.4133 206.074 22.8933 206.341 23.4C206.634 23.9067 206.968 24.28 207.341 24.52C207.688 24.7333 207.914 24.9467 208.021 25.16C208.128 25.3733 208.181 25.6133 208.181 25.88C208.181 26.1467 208.061 26.4267 207.821 26.72C207.581 26.9867 207.274 27.12 206.901 27.12Z"
        fill="#8445FF" />
</svg>